<svg xmlns="http://www.w3.org/2000/svg" viewBox="0 0 1600 600" width="1600" height="600" role="img" aria-labelledby="t d">
  <title id="t">Wallper — live wallpapers for Mac</title>
  <desc id="d">A slowly drifting dusk landscape behind the Wallper wordmark.</desc>

  <defs>
    <linearGradient id="sky" x1="0" y1="0" x2="0" y2="1">
      <stop offset="0%"   stop-color="#0A0E2B"/>
      <stop offset="32%"  stop-color="#26225E"/>
      <stop offset="55%"  stop-color="#563070"/>
      <stop offset="72%"  stop-color="#A64B63"/>
      <stop offset="90%"  stop-color="#E08A55"/>
      <stop offset="100%" stop-color="#F6C071"/>
    </linearGradient>

    <radialGradient id="glow" cx="0.5" cy="0.5" r="0.5">
      <stop offset="0%"   stop-color="#FFDDA6" stop-opacity="0.95"/>
      <stop offset="42%"  stop-color="#F29A5C" stop-opacity="0.42"/>
      <stop offset="100%" stop-color="#F0975E" stop-opacity="0"/>
    </radialGradient>

    <linearGradient id="sun" x1="0" y1="0" x2="0" y2="1">
      <stop offset="0%"   stop-color="#FFE7B4"/>
      <stop offset="100%" stop-color="#F7A54E"/>
    </linearGradient>

    <linearGradient id="veil" x1="0" y1="0" x2="0" y2="1">
      <stop offset="0%"   stop-color="#0A0718" stop-opacity="0"/>
      <stop offset="100%" stop-color="#0A0718" stop-opacity="0.62"/>
    </linearGradient>

    <filter id="grain" x="0" y="0" width="100%" height="100%">
      <feTurbulence type="fractalNoise" baseFrequency="0.9" numOctaves="2" seed="7" result="n"/>
      <feColorMatrix in="n" type="saturate" values="0"/>
      <feComponentTransfer><feFuncA type="linear" slope="0.16"/></feComponentTransfer>
    </filter>

    <clipPath id="frame"><rect width="1600" height="600"/></clipPath>
  </defs>

  <style>
    .drift { animation-name: pan; animation-timing-function: linear; animation-iteration-count: infinite; }
    @keyframes pan { from { transform: translateX(0px); } to { transform: translateX(-1600px); } }
    @keyframes breathe { 0%,100% { opacity: .55; } 50% { opacity: .85; } }
    @keyframes sweep { from { transform: translateX(-260px); } to { transform: translateX(1600px); } }
    .halo { animation: breathe 11s ease-in-out infinite; }
    .scrub { animation: sweep 24s linear infinite; }
    .wordmark { font-family: "SF Pro Display","Helvetica Neue",Helvetica,Inter,system-ui,sans-serif;
                font-weight: 700; letter-spacing: -3.5px; fill: #FBF7F2; }
    .meta { font-family: ui-monospace,"SF Mono",Menlo,"Roboto Mono",monospace;
            font-size: 15px; letter-spacing: 1.6px; fill: #E4D6DA; fill-opacity: .72; }
    .tag { font-family: ui-monospace,"SF Mono",Menlo,"Roboto Mono",monospace;
           font-size: 17px; letter-spacing: 3.4px; fill: #FBF7F2; fill-opacity: .82; }
    @media (prefers-reduced-motion: reduce) {
      .drift, .halo, .scrub { animation: none; }
    }
  </style>

  <g clip-path="url(#frame)">
    <rect width="1600" height="600" fill="url(#sky)"/>
    <g class="stars"><circle cx="112" cy="78" r="1.6" fill="#FBF7F2" fill-opacity="0.55"/><circle cx="208" cy="132" r="1.1" fill="#FBF7F2" fill-opacity="0.38"/><circle cx="296" cy="62" r="1.3" fill="#FBF7F2" fill-opacity="0.45"/><circle cx="372" cy="168" r="1.0" fill="#FBF7F2" fill-opacity="0.3"/><circle cx="452" cy="96" r="1.7" fill="#FBF7F2" fill-opacity="0.5"/><circle cx="528" cy="44" r="1.1" fill="#FBF7F2" fill-opacity="0.34"/><circle cx="610" cy="148" r="1.2" fill="#FBF7F2" fill-opacity="0.36"/><circle cx="688" cy="82" r="1.4" fill="#FBF7F2" fill-opacity="0.42"/><circle cx="764" cy="40" r="1.0" fill="#FBF7F2" fill-opacity="0.28"/><circle cx="846" cy="126" r="1.3" fill="#FBF7F2" fill-opacity="0.33"/><circle cx="930" cy="66" r="1.5" fill="#FBF7F2" fill-opacity="0.4"/><circle cx="1024" cy="110" r="1.0" fill="#FBF7F2" fill-opacity="0.26"/><circle cx="156" cy="196" r="1.2" fill="#FBF7F2" fill-opacity="0.3"/><circle cx="268" cy="224" r="1.0" fill="#FBF7F2" fill-opacity="0.22"/><circle cx="1108" cy="52" r="1.2" fill="#FBF7F2" fill-opacity="0.3"/></g>
    <ellipse class="halo" cx="1136" cy="306" rx="540" ry="252" fill="url(#glow)"/>
    <circle cx="1136" cy="300" r="66" fill="url(#sun)"/>

    <g class="drift" style="animation-duration: 96s;">
      <path d="M 0.0 378.3 L 8.0 379.4 L 16.0 380.4 L 24.0 381.3 L 32.0 382.1 L 40.0 382.8 L 48.0 383.4 L 56.0 384.0 L 64.0 384.4 L 72.0 384.7 L 80.0 384.9 L 88.0 385.0 L 96.0 385.1 L 104.0 385.0 L 112.0 384.9 L 120.0 384.7 L 128.0 384.4 L 136.0 384.0 L 144.0 383.6 L 152.0 383.1 L 160.0 382.6 L 168.0 382.0 L 176.0 381.4 L 184.0 380.8 L 192.0 380.1 L 200.0 379.5 L 208.0 378.8 L 216.0 378.1 L 224.0 377.4 L 232.0 376.8 L 240.0 376.2 L 248.0 375.5 L 256.0 375.0 L 264.0 374.4 L 272.0 373.9 L 280.0 373.5 L 288.0 373.1 L 296.0 372.7 L 304.0 372.4 L 312.0 372.2 L 320.0 372.0 L 328.0 371.8 L 336.0 371.8 L 344.0 371.7 L 352.0 371.7 L 360.0 371.8 L 368.0 371.9 L 376.0 372.1 L 384.0 372.3 L 392.0 372.5 L 400.0 372.7 L 408.0 373.0 L 416.0 373.3 L 424.0 373.6 L 432.0 373.9 L 440.0 374.2 L 448.0 374.5 L 456.0 374.7 L 464.0 374.9 L 472.0 375.1 L 480.0 375.3 L 488.0 375.4 L 496.0 375.5 L 504.0 375.5 L 512.0 375.4 L 520.0 375.3 L 528.0 375.1 L 536.0 374.8 L 544.0 374.5 L 552.0 374.0 L 560.0 373.5 L 568.0 372.9 L 576.0 372.2 L 584.0 371.4 L 592.0 370.5 L 600.0 369.5 L 608.0 368.5 L 616.0 367.4 L 624.0 366.2 L 632.0 364.9 L 640.0 363.6 L 648.0 362.2 L 656.0 360.7 L 664.0 359.2 L 672.0 357.7 L 680.0 356.1 L 688.0 354.5 L 696.0 352.9 L 704.0 351.2 L 712.0 349.6 L 720.0 348.0 L 728.0 346.4 L 736.0 344.8 L 744.0 343.2 L 752.0 341.6 L 760.0 340.2 L 768.0 338.7 L 776.0 337.4 L 784.0 336.0 L 792.0 334.8 L 800.0 333.7 L 808.0 332.6 L 816.0 331.6 L 824.0 330.7 L 832.0 329.9 L 840.0 329.2 L 848.0 328.6 L 856.0 328.0 L 864.0 327.6 L 872.0 327.3 L 880.0 327.1 L 888.0 327.0 L 896.0 326.9 L 904.0 327.0 L 912.0 327.1 L 920.0 327.3 L 928.0 327.6 L 936.0 328.0 L 944.0 328.4 L 952.0 328.9 L 960.0 329.4 L 968.0 330.0 L 976.0 330.6 L 984.0 331.2 L 992.0 331.9 L 1000.0 332.5 L 1008.0 333.2 L 1016.0 333.9 L 1024.0 334.6 L 1032.0 335.2 L 1040.0 335.8 L 1048.0 336.5 L 1056.0 337.0 L 1064.0 337.6 L 1072.0 338.1 L 1080.0 338.5 L 1088.0 338.9 L 1096.0 339.3 L 1104.0 339.6 L 1112.0 339.8 L 1120.0 340.0 L 1128.0 340.2 L 1136.0 340.2 L 1144.0 340.3 L 1152.0 340.3 L 1160.0 340.2 L 1168.0 340.1 L 1176.0 339.9 L 1184.0 339.7 L 1192.0 339.5 L 1200.0 339.3 L 1208.0 339.0 L 1216.0 338.7 L 1224.0 338.4 L 1232.0 338.1 L 1240.0 337.8 L 1248.0 337.5 L 1256.0 337.3 L 1264.0 337.1 L 1272.0 336.9 L 1280.0 336.7 L 1288.0 336.6 L 1296.0 336.5 L 1304.0 336.5 L 1312.0 336.6 L 1320.0 336.7 L 1328.0 336.9 L 1336.0 337.2 L 1344.0 337.5 L 1352.0 338.0 L 1360.0 338.5 L 1368.0 339.1 L 1376.0 339.8 L 1384.0 340.6 L 1392.0 341.5 L 1400.0 342.5 L 1408.0 343.5 L 1416.0 344.6 L 1424.0 345.8 L 1432.0 347.1 L 1440.0 348.4 L 1448.0 349.8 L 1456.0 351.3 L 1464.0 352.8 L 1472.0 354.3 L 1480.0 355.9 L 1488.0 357.5 L 1496.0 359.1 L 1504.0 360.8 L 1512.0 362.4 L 1520.0 364.0 L 1528.0 365.6 L 1536.0 367.2 L 1544.0 368.8 L 1552.0 370.4 L 1560.0 371.8 L 1568.0 373.3 L 1576.0 374.6 L 1584.0 376.0 L 1592.0 377.2 L 1600.0 378.3 L 1608.0 379.4 L 1616.0 380.4 L 1624.0 381.3 L 1632.0 382.1 L 1640.0 382.8 L 1648.0 383.4 L 1656.0 384.0 L 1664.0 384.4 L 1672.0 384.7 L 1680.0 384.9 L 1688.0 385.0 L 1696.0 385.1 L 1704.0 385.0 L 1712.0 384.9 L 1720.0 384.7 L 1728.0 384.4 L 1736.0 384.0 L 1744.0 383.6 L 1752.0 383.1 L 1760.0 382.6 L 1768.0 382.0 L 1776.0 381.4 L 1784.0 380.8 L 1792.0 380.1 L 1800.0 379.5 L 1808.0 378.8 L 1816.0 378.1 L 1824.0 377.4 L 1832.0 376.8 L 1840.0 376.2 L 1848.0 375.5 L 1856.0 375.0 L 1864.0 374.4 L 1872.0 373.9 L 1880.0 373.5 L 1888.0 373.1 L 1896.0 372.7 L 1904.0 372.4 L 1912.0 372.2 L 1920.0 372.0 L 1928.0 371.8 L 1936.0 371.8 L 1944.0 371.7 L 1952.0 371.7 L 1960.0 371.8 L 1968.0 371.9 L 1976.0 372.1 L 1984.0 372.3 L 1992.0 372.5 L 2000.0 372.7 L 2008.0 373.0 L 2016.0 373.3 L 2024.0 373.6 L 2032.0 373.9 L 2040.0 374.2 L 2048.0 374.5 L 2056.0 374.7 L 2064.0 374.9 L 2072.0 375.1 L 2080.0 375.3 L 2088.0 375.4 L 2096.0 375.5 L 2104.0 375.5 L 2112.0 375.4 L 2120.0 375.3 L 2128.0 375.1 L 2136.0 374.8 L 2144.0 374.5 L 2152.0 374.0 L 2160.0 373.5 L 2168.0 372.9 L 2176.0 372.2 L 2184.0 371.4 L 2192.0 370.5 L 2200.0 369.5 L 2208.0 368.5 L 2216.0 367.4 L 2224.0 366.2 L 2232.0 364.9 L 2240.0 363.6 L 2248.0 362.2 L 2256.0 360.7 L 2264.0 359.2 L 2272.0 357.7 L 2280.0 356.1 L 2288.0 354.5 L 2296.0 352.9 L 2304.0 351.2 L 2312.0 349.6 L 2320.0 348.0 L 2328.0 346.4 L 2336.0 344.8 L 2344.0 343.2 L 2352.0 341.6 L 2360.0 340.2 L 2368.0 338.7 L 2376.0 337.4 L 2384.0 336.0 L 2392.0 334.8 L 2400.0 333.7 L 2408.0 332.6 L 2416.0 331.6 L 2424.0 330.7 L 2432.0 329.9 L 2440.0 329.2 L 2448.0 328.6 L 2456.0 328.0 L 2464.0 327.6 L 2472.0 327.3 L 2480.0 327.1 L 2488.0 327.0 L 2496.0 326.9 L 2504.0 327.0 L 2512.0 327.1 L 2520.0 327.3 L 2528.0 327.6 L 2536.0 328.0 L 2544.0 328.4 L 2552.0 328.9 L 2560.0 329.4 L 2568.0 330.0 L 2576.0 330.6 L 2584.0 331.2 L 2592.0 331.9 L 2600.0 332.5 L 2608.0 333.2 L 2616.0 333.9 L 2624.0 334.6 L 2632.0 335.2 L 2640.0 335.8 L 2648.0 336.5 L 2656.0 337.0 L 2664.0 337.6 L 2672.0 338.1 L 2680.0 338.5 L 2688.0 338.9 L 2696.0 339.3 L 2704.0 339.6 L 2712.0 339.8 L 2720.0 340.0 L 2728.0 340.2 L 2736.0 340.2 L 2744.0 340.3 L 2752.0 340.3 L 2760.0 340.2 L 2768.0 340.1 L 2776.0 339.9 L 2784.0 339.7 L 2792.0 339.5 L 2800.0 339.3 L 2808.0 339.0 L 2816.0 338.7 L 2824.0 338.4 L 2832.0 338.1 L 2840.0 337.8 L 2848.0 337.5 L 2856.0 337.3 L 2864.0 337.1 L 2872.0 336.9 L 2880.0 336.7 L 2888.0 336.6 L 2896.0 336.5 L 2904.0 336.5 L 2912.0 336.6 L 2920.0 336.7 L 2928.0 336.9 L 2936.0 337.2 L 2944.0 337.5 L 2952.0 338.0 L 2960.0 338.5 L 2968.0 339.1 L 2976.0 339.8 L 2984.0 340.6 L 2992.0 341.5 L 3000.0 342.5 L 3008.0 343.5 L 3016.0 344.6 L 3024.0 345.8 L 3032.0 347.1 L 3040.0 348.4 L 3048.0 349.8 L 3056.0 351.3 L 3064.0 352.8 L 3072.0 354.3 L 3080.0 355.9 L 3088.0 357.5 L 3096.0 359.1 L 3104.0 360.8 L 3112.0 362.4 L 3120.0 364.0 L 3128.0 365.6 L 3136.0 367.2 L 3144.0 368.8 L 3152.0 370.4 L 3160.0 371.8 L 3168.0 373.3 L 3176.0 374.6 L 3184.0 376.0 L 3192.0 377.2 L 3200.0 378.3 L 3200 640 L 0 640 Z" fill="#3A2E63" fill-opacity="0.55"/>
    </g>
    <g class="drift" style="animation-duration: 62s;">
      <path d="M 0.0 427.9 L 8.0 426.0 L 16.0 424.0 L 24.0 422.2 L 32.0 420.5 L 40.0 419.0 L 48.0 417.6 L 56.0 416.3 L 64.0 415.3 L 72.0 414.4 L 80.0 413.7 L 88.0 413.2 L 96.0 412.8 L 104.0 412.7 L 112.0 412.6 L 120.0 412.8 L 128.0 413.0 L 136.0 413.4 L 144.0 413.9 L 152.0 414.5 L 160.0 415.1 L 168.0 415.7 L 176.0 416.3 L 184.0 417.0 L 192.0 417.5 L 200.0 418.0 L 208.0 418.4 L 216.0 418.7 L 224.0 418.9 L 232.0 418.9 L 240.0 418.7 L 248.0 418.3 L 256.0 417.8 L 264.0 417.0 L 272.0 416.1 L 280.0 414.9 L 288.0 413.6 L 296.0 412.0 L 304.0 410.3 L 312.0 408.4 L 320.0 406.3 L 328.0 404.1 L 336.0 401.8 L 344.0 399.3 L 352.0 396.8 L 360.0 394.2 L 368.0 391.6 L 376.0 389.0 L 384.0 386.4 L 392.0 383.9 L 400.0 381.4 L 408.0 379.1 L 416.0 376.9 L 424.0 374.8 L 432.0 372.9 L 440.0 371.1 L 448.0 369.6 L 456.0 368.3 L 464.0 367.2 L 472.0 366.3 L 480.0 365.7 L 488.0 365.3 L 496.0 365.1 L 504.0 365.1 L 512.0 365.4 L 520.0 365.8 L 528.0 366.4 L 536.0 367.2 L 544.0 368.1 L 552.0 369.1 L 560.0 370.3 L 568.0 371.5 L 576.0 372.7 L 584.0 374.0 L 592.0 375.3 L 600.0 376.5 L 608.0 377.7 L 616.0 378.8 L 624.0 379.8 L 632.0 380.7 L 640.0 381.5 L 648.0 382.1 L 656.0 382.6 L 664.0 382.9 L 672.0 383.0 L 680.0 383.0 L 688.0 382.8 L 696.0 382.4 L 704.0 381.9 L 712.0 381.2 L 720.0 380.4 L 728.0 379.4 L 736.0 378.4 L 744.0 377.3 L 752.0 376.1 L 760.0 374.9 L 768.0 373.7 L 776.0 372.5 L 784.0 371.3 L 792.0 370.3 L 800.0 369.3 L 808.0 368.4 L 816.0 367.6 L 824.0 367.0 L 832.0 366.6 L 840.0 366.4 L 848.0 366.4 L 856.0 366.5 L 864.0 367.0 L 872.0 367.6 L 880.0 368.5 L 888.0 369.6 L 896.0 370.9 L 904.0 372.4 L 912.0 374.1 L 920.0 376.1 L 928.0 378.2 L 936.0 380.4 L 944.0 382.7 L 952.0 385.2 L 960.0 387.8 L 968.0 390.4 L 976.0 393.0 L 984.0 395.6 L 992.0 398.2 L 1000.0 400.8 L 1008.0 403.3 L 1016.0 405.6 L 1024.0 407.9 L 1032.0 410.0 L 1040.0 412.0 L 1048.0 413.7 L 1056.0 415.3 L 1064.0 416.7 L 1072.0 417.9 L 1080.0 418.9 L 1088.0 419.7 L 1096.0 420.2 L 1104.0 420.6 L 1112.0 420.8 L 1120.0 420.8 L 1128.0 420.7 L 1136.0 420.4 L 1144.0 420.0 L 1152.0 419.5 L 1160.0 418.9 L 1168.0 418.3 L 1176.0 417.7 L 1184.0 417.0 L 1192.0 416.4 L 1200.0 415.8 L 1208.0 415.2 L 1216.0 414.8 L 1224.0 414.5 L 1232.0 414.3 L 1240.0 414.2 L 1248.0 414.3 L 1256.0 414.6 L 1264.0 415.0 L 1272.0 415.7 L 1280.0 416.5 L 1288.0 417.5 L 1296.0 418.6 L 1304.0 419.9 L 1312.0 421.4 L 1320.0 423.0 L 1328.0 424.8 L 1336.0 426.6 L 1344.0 428.5 L 1352.0 430.5 L 1360.0 432.6 L 1368.0 434.6 L 1376.0 436.6 L 1384.0 438.6 L 1392.0 440.5 L 1400.0 442.3 L 1408.0 444.0 L 1416.0 445.5 L 1424.0 446.9 L 1432.0 448.1 L 1440.0 449.2 L 1448.0 450.0 L 1456.0 450.5 L 1464.0 450.9 L 1472.0 451.0 L 1480.0 450.9 L 1488.0 450.5 L 1496.0 449.9 L 1504.0 449.1 L 1512.0 448.0 L 1520.0 446.8 L 1528.0 445.4 L 1536.0 443.8 L 1544.0 442.1 L 1552.0 440.2 L 1560.0 438.3 L 1568.0 436.2 L 1576.0 434.2 L 1584.0 432.1 L 1592.0 430.0 L 1600.0 427.9 L 1608.0 426.0 L 1616.0 424.0 L 1624.0 422.2 L 1632.0 420.5 L 1640.0 419.0 L 1648.0 417.6 L 1656.0 416.3 L 1664.0 415.3 L 1672.0 414.4 L 1680.0 413.7 L 1688.0 413.2 L 1696.0 412.8 L 1704.0 412.7 L 1712.0 412.6 L 1720.0 412.8 L 1728.0 413.0 L 1736.0 413.4 L 1744.0 413.9 L 1752.0 414.5 L 1760.0 415.1 L 1768.0 415.7 L 1776.0 416.3 L 1784.0 417.0 L 1792.0 417.5 L 1800.0 418.0 L 1808.0 418.4 L 1816.0 418.7 L 1824.0 418.9 L 1832.0 418.9 L 1840.0 418.7 L 1848.0 418.3 L 1856.0 417.8 L 1864.0 417.0 L 1872.0 416.1 L 1880.0 414.9 L 1888.0 413.6 L 1896.0 412.0 L 1904.0 410.3 L 1912.0 408.4 L 1920.0 406.3 L 1928.0 404.1 L 1936.0 401.8 L 1944.0 399.3 L 1952.0 396.8 L 1960.0 394.2 L 1968.0 391.6 L 1976.0 389.0 L 1984.0 386.4 L 1992.0 383.9 L 2000.0 381.4 L 2008.0 379.1 L 2016.0 376.9 L 2024.0 374.8 L 2032.0 372.9 L 2040.0 371.1 L 2048.0 369.6 L 2056.0 368.3 L 2064.0 367.2 L 2072.0 366.3 L 2080.0 365.7 L 2088.0 365.3 L 2096.0 365.1 L 2104.0 365.1 L 2112.0 365.4 L 2120.0 365.8 L 2128.0 366.4 L 2136.0 367.2 L 2144.0 368.1 L 2152.0 369.1 L 2160.0 370.3 L 2168.0 371.5 L 2176.0 372.7 L 2184.0 374.0 L 2192.0 375.3 L 2200.0 376.5 L 2208.0 377.7 L 2216.0 378.8 L 2224.0 379.8 L 2232.0 380.7 L 2240.0 381.5 L 2248.0 382.1 L 2256.0 382.6 L 2264.0 382.9 L 2272.0 383.0 L 2280.0 383.0 L 2288.0 382.8 L 2296.0 382.4 L 2304.0 381.9 L 2312.0 381.2 L 2320.0 380.4 L 2328.0 379.4 L 2336.0 378.4 L 2344.0 377.3 L 2352.0 376.1 L 2360.0 374.9 L 2368.0 373.7 L 2376.0 372.5 L 2384.0 371.3 L 2392.0 370.3 L 2400.0 369.3 L 2408.0 368.4 L 2416.0 367.6 L 2424.0 367.0 L 2432.0 366.6 L 2440.0 366.4 L 2448.0 366.4 L 2456.0 366.5 L 2464.0 367.0 L 2472.0 367.6 L 2480.0 368.5 L 2488.0 369.6 L 2496.0 370.9 L 2504.0 372.4 L 2512.0 374.1 L 2520.0 376.1 L 2528.0 378.2 L 2536.0 380.4 L 2544.0 382.7 L 2552.0 385.2 L 2560.0 387.8 L 2568.0 390.4 L 2576.0 393.0 L 2584.0 395.6 L 2592.0 398.2 L 2600.0 400.8 L 2608.0 403.3 L 2616.0 405.6 L 2624.0 407.9 L 2632.0 410.0 L 2640.0 412.0 L 2648.0 413.7 L 2656.0 415.3 L 2664.0 416.7 L 2672.0 417.9 L 2680.0 418.9 L 2688.0 419.7 L 2696.0 420.2 L 2704.0 420.6 L 2712.0 420.8 L 2720.0 420.8 L 2728.0 420.7 L 2736.0 420.4 L 2744.0 420.0 L 2752.0 419.5 L 2760.0 418.9 L 2768.0 418.3 L 2776.0 417.7 L 2784.0 417.0 L 2792.0 416.4 L 2800.0 415.8 L 2808.0 415.2 L 2816.0 414.8 L 2824.0 414.5 L 2832.0 414.3 L 2840.0 414.2 L 2848.0 414.3 L 2856.0 414.6 L 2864.0 415.0 L 2872.0 415.7 L 2880.0 416.5 L 2888.0 417.5 L 2896.0 418.6 L 2904.0 419.9 L 2912.0 421.4 L 2920.0 423.0 L 2928.0 424.8 L 2936.0 426.6 L 2944.0 428.5 L 2952.0 430.5 L 2960.0 432.6 L 2968.0 434.6 L 2976.0 436.6 L 2984.0 438.6 L 2992.0 440.5 L 3000.0 442.3 L 3008.0 444.0 L 3016.0 445.5 L 3024.0 446.9 L 3032.0 448.1 L 3040.0 449.2 L 3048.0 450.0 L 3056.0 450.5 L 3064.0 450.9 L 3072.0 451.0 L 3080.0 450.9 L 3088.0 450.5 L 3096.0 449.9 L 3104.0 449.1 L 3112.0 448.0 L 3120.0 446.8 L 3128.0 445.4 L 3136.0 443.8 L 3144.0 442.1 L 3152.0 440.2 L 3160.0 438.3 L 3168.0 436.2 L 3176.0 434.2 L 3184.0 432.1 L 3192.0 430.0 L 3200.0 427.9 L 3200 640 L 0 640 Z" fill="#2A2050" fill-opacity="0.85"/>
    </g>
    <g class="drift" style="animation-duration: 40s;">
      <path d="M 0.0 437.1 L 8.0 438.0 L 16.0 438.6 L 24.0 438.9 L 32.0 438.8 L 40.0 438.3 L 48.0 437.4 L 56.0 436.0 L 64.0 434.2 L 72.0 432.1 L 80.0 429.6 L 88.0 426.9 L 96.0 424.1 L 104.0 421.2 L 112.0 418.4 L 120.0 415.7 L 128.0 413.4 L 136.0 411.4 L 144.0 410.0 L 152.0 409.1 L 160.0 408.9 L 168.0 409.3 L 176.0 410.5 L 184.0 412.5 L 192.0 415.1 L 200.0 418.5 L 208.0 422.4 L 216.0 427.0 L 224.0 432.0 L 232.0 437.4 L 240.0 443.0 L 248.0 448.8 L 256.0 454.6 L 264.0 460.3 L 272.0 465.7 L 280.0 470.9 L 288.0 475.5 L 296.0 479.7 L 304.0 483.3 L 312.0 486.3 L 320.0 488.7 L 328.0 490.4 L 336.0 491.5 L 344.0 492.1 L 352.0 492.2 L 360.0 491.8 L 368.0 491.1 L 376.0 490.1 L 384.0 489.1 L 392.0 487.9 L 400.0 486.9 L 408.0 486.0 L 416.0 485.4 L 424.0 485.1 L 432.0 485.2 L 440.0 485.7 L 448.0 486.6 L 456.0 488.0 L 464.0 489.8 L 472.0 491.9 L 480.0 494.4 L 488.0 497.1 L 496.0 499.9 L 504.0 502.8 L 512.0 505.6 L 520.0 508.3 L 528.0 510.6 L 536.0 512.6 L 544.0 514.0 L 552.0 514.9 L 560.0 515.1 L 568.0 514.7 L 576.0 513.5 L 584.0 511.5 L 592.0 508.9 L 600.0 505.5 L 608.0 501.6 L 616.0 497.0 L 624.0 492.0 L 632.0 486.6 L 640.0 481.0 L 648.0 475.2 L 656.0 469.4 L 664.0 463.7 L 672.0 458.3 L 680.0 453.1 L 688.0 448.5 L 696.0 444.3 L 704.0 440.7 L 712.0 437.7 L 720.0 435.3 L 728.0 433.6 L 736.0 432.5 L 744.0 431.9 L 752.0 431.8 L 760.0 432.2 L 768.0 432.9 L 776.0 433.9 L 784.0 434.9 L 792.0 436.1 L 800.0 437.1 L 808.0 438.0 L 816.0 438.6 L 824.0 438.9 L 832.0 438.8 L 840.0 438.3 L 848.0 437.4 L 856.0 436.0 L 864.0 434.2 L 872.0 432.1 L 880.0 429.6 L 888.0 426.9 L 896.0 424.1 L 904.0 421.2 L 912.0 418.4 L 920.0 415.7 L 928.0 413.4 L 936.0 411.4 L 944.0 410.0 L 952.0 409.1 L 960.0 408.9 L 968.0 409.3 L 976.0 410.5 L 984.0 412.5 L 992.0 415.1 L 1000.0 418.5 L 1008.0 422.4 L 1016.0 427.0 L 1024.0 432.0 L 1032.0 437.4 L 1040.0 443.0 L 1048.0 448.8 L 1056.0 454.6 L 1064.0 460.3 L 1072.0 465.7 L 1080.0 470.9 L 1088.0 475.5 L 1096.0 479.7 L 1104.0 483.3 L 1112.0 486.3 L 1120.0 488.7 L 1128.0 490.4 L 1136.0 491.5 L 1144.0 492.1 L 1152.0 492.2 L 1160.0 491.8 L 1168.0 491.1 L 1176.0 490.1 L 1184.0 489.1 L 1192.0 487.9 L 1200.0 486.9 L 1208.0 486.0 L 1216.0 485.4 L 1224.0 485.1 L 1232.0 485.2 L 1240.0 485.7 L 1248.0 486.6 L 1256.0 488.0 L 1264.0 489.8 L 1272.0 491.9 L 1280.0 494.4 L 1288.0 497.1 L 1296.0 499.9 L 1304.0 502.8 L 1312.0 505.6 L 1320.0 508.3 L 1328.0 510.6 L 1336.0 512.6 L 1344.0 514.0 L 1352.0 514.9 L 1360.0 515.1 L 1368.0 514.7 L 1376.0 513.5 L 1384.0 511.5 L 1392.0 508.9 L 1400.0 505.5 L 1408.0 501.6 L 1416.0 497.0 L 1424.0 492.0 L 1432.0 486.6 L 1440.0 481.0 L 1448.0 475.2 L 1456.0 469.4 L 1464.0 463.7 L 1472.0 458.3 L 1480.0 453.1 L 1488.0 448.5 L 1496.0 444.3 L 1504.0 440.7 L 1512.0 437.7 L 1520.0 435.3 L 1528.0 433.6 L 1536.0 432.5 L 1544.0 431.9 L 1552.0 431.8 L 1560.0 432.2 L 1568.0 432.9 L 1576.0 433.9 L 1584.0 434.9 L 1592.0 436.1 L 1600.0 437.1 L 1608.0 438.0 L 1616.0 438.6 L 1624.0 438.9 L 1632.0 438.8 L 1640.0 438.3 L 1648.0 437.4 L 1656.0 436.0 L 1664.0 434.2 L 1672.0 432.1 L 1680.0 429.6 L 1688.0 426.9 L 1696.0 424.1 L 1704.0 421.2 L 1712.0 418.4 L 1720.0 415.7 L 1728.0 413.4 L 1736.0 411.4 L 1744.0 410.0 L 1752.0 409.1 L 1760.0 408.9 L 1768.0 409.3 L 1776.0 410.5 L 1784.0 412.5 L 1792.0 415.1 L 1800.0 418.5 L 1808.0 422.4 L 1816.0 427.0 L 1824.0 432.0 L 1832.0 437.4 L 1840.0 443.0 L 1848.0 448.8 L 1856.0 454.6 L 1864.0 460.3 L 1872.0 465.7 L 1880.0 470.9 L 1888.0 475.5 L 1896.0 479.7 L 1904.0 483.3 L 1912.0 486.3 L 1920.0 488.7 L 1928.0 490.4 L 1936.0 491.5 L 1944.0 492.1 L 1952.0 492.2 L 1960.0 491.8 L 1968.0 491.1 L 1976.0 490.1 L 1984.0 489.1 L 1992.0 487.9 L 2000.0 486.9 L 2008.0 486.0 L 2016.0 485.4 L 2024.0 485.1 L 2032.0 485.2 L 2040.0 485.7 L 2048.0 486.6 L 2056.0 488.0 L 2064.0 489.8 L 2072.0 491.9 L 2080.0 494.4 L 2088.0 497.1 L 2096.0 499.9 L 2104.0 502.8 L 2112.0 505.6 L 2120.0 508.3 L 2128.0 510.6 L 2136.0 512.6 L 2144.0 514.0 L 2152.0 514.9 L 2160.0 515.1 L 2168.0 514.7 L 2176.0 513.5 L 2184.0 511.5 L 2192.0 508.9 L 2200.0 505.5 L 2208.0 501.6 L 2216.0 497.0 L 2224.0 492.0 L 2232.0 486.6 L 2240.0 481.0 L 2248.0 475.2 L 2256.0 469.4 L 2264.0 463.7 L 2272.0 458.3 L 2280.0 453.1 L 2288.0 448.5 L 2296.0 444.3 L 2304.0 440.7 L 2312.0 437.7 L 2320.0 435.3 L 2328.0 433.6 L 2336.0 432.5 L 2344.0 431.9 L 2352.0 431.8 L 2360.0 432.2 L 2368.0 432.9 L 2376.0 433.9 L 2384.0 434.9 L 2392.0 436.1 L 2400.0 437.1 L 2408.0 438.0 L 2416.0 438.6 L 2424.0 438.9 L 2432.0 438.8 L 2440.0 438.3 L 2448.0 437.4 L 2456.0 436.0 L 2464.0 434.2 L 2472.0 432.1 L 2480.0 429.6 L 2488.0 426.9 L 2496.0 424.1 L 2504.0 421.2 L 2512.0 418.4 L 2520.0 415.7 L 2528.0 413.4 L 2536.0 411.4 L 2544.0 410.0 L 2552.0 409.1 L 2560.0 408.9 L 2568.0 409.3 L 2576.0 410.5 L 2584.0 412.5 L 2592.0 415.1 L 2600.0 418.5 L 2608.0 422.4 L 2616.0 427.0 L 2624.0 432.0 L 2632.0 437.4 L 2640.0 443.0 L 2648.0 448.8 L 2656.0 454.6 L 2664.0 460.3 L 2672.0 465.7 L 2680.0 470.9 L 2688.0 475.5 L 2696.0 479.7 L 2704.0 483.3 L 2712.0 486.3 L 2720.0 488.7 L 2728.0 490.4 L 2736.0 491.5 L 2744.0 492.1 L 2752.0 492.2 L 2760.0 491.8 L 2768.0 491.1 L 2776.0 490.1 L 2784.0 489.1 L 2792.0 487.9 L 2800.0 486.9 L 2808.0 486.0 L 2816.0 485.4 L 2824.0 485.1 L 2832.0 485.2 L 2840.0 485.7 L 2848.0 486.6 L 2856.0 488.0 L 2864.0 489.8 L 2872.0 491.9 L 2880.0 494.4 L 2888.0 497.1 L 2896.0 499.9 L 2904.0 502.8 L 2912.0 505.6 L 2920.0 508.3 L 2928.0 510.6 L 2936.0 512.6 L 2944.0 514.0 L 2952.0 514.9 L 2960.0 515.1 L 2968.0 514.7 L 2976.0 513.5 L 2984.0 511.5 L 2992.0 508.9 L 3000.0 505.5 L 3008.0 501.6 L 3016.0 497.0 L 3024.0 492.0 L 3032.0 486.6 L 3040.0 481.0 L 3048.0 475.2 L 3056.0 469.4 L 3064.0 463.7 L 3072.0 458.3 L 3080.0 453.1 L 3088.0 448.5 L 3096.0 444.3 L 3104.0 440.7 L 3112.0 437.7 L 3120.0 435.3 L 3128.0 433.6 L 3136.0 432.5 L 3144.0 431.9 L 3152.0 431.8 L 3160.0 432.2 L 3168.0 432.9 L 3176.0 433.9 L 3184.0 434.9 L 3192.0 436.1 L 3200.0 437.1 L 3200 640 L 0 640 Z" fill="#1C1439"/>
    </g>
    <g class="drift" style="animation-duration: 25s;">
      <path d="M 0.0 599.2 L 8.0 598.5 L 16.0 597.2 L 24.0 595.3 L 32.0 593.0 L 40.0 590.3 L 48.0 587.6 L 56.0 584.8 L 64.0 582.2 L 72.0 579.9 L 80.0 578.0 L 88.0 576.5 L 96.0 575.4 L 104.0 574.8 L 112.0 574.5 L 120.0 574.5 L 128.0 574.7 L 136.0 574.9 L 144.0 575.1 L 152.0 575.0 L 160.0 574.5 L 168.0 573.6 L 176.0 572.2 L 184.0 570.2 L 192.0 567.6 L 200.0 564.4 L 208.0 560.8 L 216.0 556.9 L 224.0 552.7 L 232.0 548.5 L 240.0 544.3 L 248.0 540.5 L 256.0 537.0 L 264.0 534.2 L 272.0 532.1 L 280.0 530.7 L 288.0 530.2 L 296.0 530.6 L 304.0 531.8 L 312.0 533.7 L 320.0 536.3 L 328.0 539.4 L 336.0 542.8 L 344.0 546.5 L 352.0 550.1 L 360.0 553.7 L 368.0 556.9 L 376.0 559.8 L 384.0 562.2 L 392.0 564.1 L 400.0 565.5 L 408.0 566.4 L 416.0 566.9 L 424.0 567.1 L 432.0 567.1 L 440.0 567.1 L 448.0 567.1 L 456.0 567.3 L 464.0 567.8 L 472.0 568.8 L 480.0 570.2 L 488.0 572.1 L 496.0 574.5 L 504.0 577.3 L 512.0 580.5 L 520.0 583.9 L 528.0 587.4 L 536.0 590.8 L 544.0 594.0 L 552.0 596.8 L 560.0 599.0 L 568.0 600.6 L 576.0 601.4 L 584.0 601.3 L 592.0 600.4 L 600.0 598.7 L 608.0 596.2 L 616.0 593.1 L 624.0 589.3 L 632.0 585.2 L 640.0 580.9 L 648.0 576.5 L 656.0 572.3 L 664.0 568.3 L 672.0 564.7 L 680.0 561.6 L 688.0 559.1 L 696.0 557.2 L 704.0 555.9 L 712.0 555.1 L 720.0 554.8 L 728.0 554.8 L 736.0 555.1 L 744.0 555.4 L 752.0 555.7 L 760.0 555.7 L 768.0 555.5 L 776.0 555.0 L 784.0 554.0 L 792.0 552.5 L 800.0 550.7 L 808.0 548.5 L 816.0 546.1 L 824.0 543.5 L 832.0 541.0 L 840.0 538.6 L 848.0 536.5 L 856.0 535.0 L 864.0 534.0 L 872.0 533.7 L 880.0 534.3 L 888.0 535.6 L 896.0 537.7 L 904.0 540.6 L 912.0 544.2 L 920.0 548.3 L 928.0 552.9 L 936.0 557.6 L 944.0 562.5 L 952.0 567.2 L 960.0 571.6 L 968.0 575.6 L 976.0 579.0 L 984.0 581.8 L 992.0 584.0 L 1000.0 585.4 L 1008.0 586.2 L 1016.0 586.4 L 1024.0 586.1 L 1032.0 585.5 L 1040.0 584.6 L 1048.0 583.6 L 1056.0 582.7 L 1064.0 582.0 L 1072.0 581.6 L 1080.0 581.5 L 1088.0 581.9 L 1096.0 582.6 L 1104.0 583.7 L 1112.0 585.0 L 1120.0 586.6 L 1128.0 588.2 L 1136.0 589.8 L 1144.0 591.1 L 1152.0 592.0 L 1160.0 592.5 L 1168.0 592.3 L 1176.0 591.4 L 1184.0 589.8 L 1192.0 587.4 L 1200.0 584.3 L 1208.0 580.6 L 1216.0 576.4 L 1224.0 571.7 L 1232.0 566.8 L 1240.0 561.8 L 1248.0 557.0 L 1256.0 552.5 L 1264.0 548.4 L 1272.0 544.9 L 1280.0 542.1 L 1288.0 540.0 L 1296.0 538.7 L 1304.0 538.1 L 1312.0 538.2 L 1320.0 539.0 L 1328.0 540.2 L 1336.0 541.8 L 1344.0 543.5 L 1352.0 545.4 L 1360.0 547.1 L 1368.0 548.6 L 1376.0 549.8 L 1384.0 550.7 L 1392.0 551.1 L 1400.0 551.1 L 1408.0 550.8 L 1416.0 550.2 L 1424.0 549.5 L 1432.0 548.7 L 1440.0 548.0 L 1448.0 547.6 L 1456.0 547.5 L 1464.0 547.9 L 1472.0 548.9 L 1480.0 550.6 L 1488.0 552.9 L 1496.0 555.9 L 1504.0 559.5 L 1512.0 563.6 L 1520.0 568.1 L 1528.0 572.8 L 1536.0 577.5 L 1544.0 582.1 L 1552.0 586.5 L 1560.0 590.4 L 1568.0 593.7 L 1576.0 596.2 L 1584.0 598.0 L 1592.0 599.0 L 1600.0 599.2 L 1608.0 598.5 L 1616.0 597.2 L 1624.0 595.3 L 1632.0 593.0 L 1640.0 590.3 L 1648.0 587.6 L 1656.0 584.8 L 1664.0 582.2 L 1672.0 579.9 L 1680.0 578.0 L 1688.0 576.5 L 1696.0 575.4 L 1704.0 574.8 L 1712.0 574.5 L 1720.0 574.5 L 1728.0 574.7 L 1736.0 574.9 L 1744.0 575.1 L 1752.0 575.0 L 1760.0 574.5 L 1768.0 573.6 L 1776.0 572.2 L 1784.0 570.2 L 1792.0 567.6 L 1800.0 564.4 L 1808.0 560.8 L 1816.0 556.9 L 1824.0 552.7 L 1832.0 548.5 L 1840.0 544.3 L 1848.0 540.5 L 1856.0 537.0 L 1864.0 534.2 L 1872.0 532.1 L 1880.0 530.7 L 1888.0 530.2 L 1896.0 530.6 L 1904.0 531.8 L 1912.0 533.7 L 1920.0 536.3 L 1928.0 539.4 L 1936.0 542.8 L 1944.0 546.5 L 1952.0 550.1 L 1960.0 553.7 L 1968.0 556.9 L 1976.0 559.8 L 1984.0 562.2 L 1992.0 564.1 L 2000.0 565.5 L 2008.0 566.4 L 2016.0 566.9 L 2024.0 567.1 L 2032.0 567.1 L 2040.0 567.1 L 2048.0 567.1 L 2056.0 567.3 L 2064.0 567.8 L 2072.0 568.8 L 2080.0 570.2 L 2088.0 572.1 L 2096.0 574.5 L 2104.0 577.3 L 2112.0 580.5 L 2120.0 583.9 L 2128.0 587.4 L 2136.0 590.8 L 2144.0 594.0 L 2152.0 596.8 L 2160.0 599.0 L 2168.0 600.6 L 2176.0 601.4 L 2184.0 601.3 L 2192.0 600.4 L 2200.0 598.7 L 2208.0 596.2 L 2216.0 593.1 L 2224.0 589.3 L 2232.0 585.2 L 2240.0 580.9 L 2248.0 576.5 L 2256.0 572.3 L 2264.0 568.3 L 2272.0 564.7 L 2280.0 561.6 L 2288.0 559.1 L 2296.0 557.2 L 2304.0 555.9 L 2312.0 555.1 L 2320.0 554.8 L 2328.0 554.8 L 2336.0 555.1 L 2344.0 555.4 L 2352.0 555.7 L 2360.0 555.7 L 2368.0 555.5 L 2376.0 555.0 L 2384.0 554.0 L 2392.0 552.5 L 2400.0 550.7 L 2408.0 548.5 L 2416.0 546.1 L 2424.0 543.5 L 2432.0 541.0 L 2440.0 538.6 L 2448.0 536.5 L 2456.0 535.0 L 2464.0 534.0 L 2472.0 533.7 L 2480.0 534.3 L 2488.0 535.6 L 2496.0 537.7 L 2504.0 540.6 L 2512.0 544.2 L 2520.0 548.3 L 2528.0 552.9 L 2536.0 557.6 L 2544.0 562.5 L 2552.0 567.2 L 2560.0 571.6 L 2568.0 575.6 L 2576.0 579.0 L 2584.0 581.8 L 2592.0 584.0 L 2600.0 585.4 L 2608.0 586.2 L 2616.0 586.4 L 2624.0 586.1 L 2632.0 585.5 L 2640.0 584.6 L 2648.0 583.6 L 2656.0 582.7 L 2664.0 582.0 L 2672.0 581.6 L 2680.0 581.5 L 2688.0 581.9 L 2696.0 582.6 L 2704.0 583.7 L 2712.0 585.0 L 2720.0 586.6 L 2728.0 588.2 L 2736.0 589.8 L 2744.0 591.1 L 2752.0 592.0 L 2760.0 592.5 L 2768.0 592.3 L 2776.0 591.4 L 2784.0 589.8 L 2792.0 587.4 L 2800.0 584.3 L 2808.0 580.6 L 2816.0 576.4 L 2824.0 571.7 L 2832.0 566.8 L 2840.0 561.8 L 2848.0 557.0 L 2856.0 552.5 L 2864.0 548.4 L 2872.0 544.9 L 2880.0 542.1 L 2888.0 540.0 L 2896.0 538.7 L 2904.0 538.1 L 2912.0 538.2 L 2920.0 539.0 L 2928.0 540.2 L 2936.0 541.8 L 2944.0 543.5 L 2952.0 545.4 L 2960.0 547.1 L 2968.0 548.6 L 2976.0 549.8 L 2984.0 550.7 L 2992.0 551.1 L 3000.0 551.1 L 3008.0 550.8 L 3016.0 550.2 L 3024.0 549.5 L 3032.0 548.7 L 3040.0 548.0 L 3048.0 547.6 L 3056.0 547.5 L 3064.0 547.9 L 3072.0 548.9 L 3080.0 550.6 L 3088.0 552.9 L 3096.0 555.9 L 3104.0 559.5 L 3112.0 563.6 L 3120.0 568.1 L 3128.0 572.8 L 3136.0 577.5 L 3144.0 582.1 L 3152.0 586.5 L 3160.0 590.4 L 3168.0 593.7 L 3176.0 596.2 L 3184.0 598.0 L 3192.0 599.0 L 3200.0 599.2 L 3200 640 L 0 640 Z" fill="#0B0620"/>
    </g>

    <rect y="420" width="1600" height="180" fill="url(#veil)"/>
    <rect width="1600" height="600" filter="url(#grain)" opacity="0.5" style="mix-blend-mode:overlay"/>

    <text class="wordmark" x="96" y="352" font-size="148">Wallper</text>
    <text class="tag" x="102" y="404">LIVE WALLPAPERS FOR MAC</text>

    <g opacity="0.9">
      <rect x="96" y="466" width="34" height="2" fill="#F7A54E"/>
      <text class="meta" x="146" y="473">4K HEVC, decoded on the GPU</text>
      <text class="meta" x="146" y="503">Desktop, lock screen, screensaver</text>
    </g>

    <rect x="0" y="597" width="1600" height="3" fill="#FBF7F2" fill-opacity="0.14"/>
    <rect class="scrub" x="0" y="597" width="260" height="3" fill="#F7A54E" fill-opacity="0.9"/>
  </g>
</svg>
